<svg width="303.3" height="110.703" viewBox="0 0 303.3 110.703" xmlns="http://www.w3.org/2000/svg"><g id="svgGroup" stroke-linecap="round" fill-rule="nonzero" font-size="9pt" stroke="#000000" stroke-width="0mm" fill="#ffffff" style="stroke:#000000;stroke-width:0mm;fill:#ffffff"><path d="M 77.421 0.716 Q 78.913 1.28 80.502 2.291 A 27.55 27.55 0 0 1 83.475 4.501 A 34.738 34.738 0 0 1 85.55 6.391 Q 88.61 9.436 88.789 11.588 A 3.183 3.183 0 0 1 88.8 11.851 A 66.775 66.775 0 0 1 88.523 17.444 Q 87.694 27.133 84.375 44.626 Q 79.95 67.951 73.05 89.251 Q 66.294 110.108 60.832 110.542 A 2.922 2.922 0 0 1 60.6 110.551 Q 58.694 110.551 55.821 108.776 A 26.171 26.171 0 0 1 54.75 108.076 A 14.97 14.97 0 0 1 52.221 105.917 A 10.693 10.693 0 0 1 49.95 102.226 A 150.058 150.058 0 0 1 49.317 100.402 Q 47.995 96.522 45.3 88.201 A 630.118 630.118 0 0 0 39.494 71.128 Q 36.659 63.193 33.95 56.422 A 285.309 285.309 0 0 0 30.3 47.701 A 293.554 293.554 0 0 0 29.733 50.186 Q 29.104 52.989 28.297 56.79 A 1129.258 1129.258 0 0 0 27.525 60.451 A 1983.897 1983.897 0 0 1 26.705 64.356 Q 25.902 68.156 25.279 71.018 A 567.932 567.932 0 0 1 24.75 73.426 A 3598.452 3598.452 0 0 1 23.899 77.244 Q 23.518 78.949 23.094 80.845 A 7064.111 7064.111 0 0 1 22.2 84.826 A 329.669 329.669 0 0 1 21.473 87.99 Q 20.625 91.6 19.913 94.199 A 93.257 93.257 0 0 1 19.575 95.401 Q 18.45 99.301 17.1 103.201 A 45.984 45.984 0 0 1 16.229 105.652 Q 14.314 110.551 12.6 110.551 Q 9.644 110.551 4.942 105.237 A 46.258 46.258 0 0 1 4.8 105.076 A 32.249 32.249 0 0 1 2.7 102.433 Q 0.589 99.442 0.128 96.967 A 7.325 7.325 0 0 1 0 95.626 Q 0 92.248 6.229 64.444 A 2752.424 2752.424 0 0 1 8.625 53.851 A 1715.524 1715.524 0 0 0 11.583 40.668 Q 17.391 14.251 18 6.451 A 16.53 16.53 0 0 1 18.258 4.514 Q 18.667 2.477 19.568 1.543 A 2.512 2.512 0 0 1 21.45 0.751 Q 24 0.751 27.975 3.751 Q 31.95 6.751 34.875 11.026 A 19.457 19.457 0 0 1 36.258 13.558 Q 39.302 19.976 45.248 38.231 A 825.402 825.402 0 0 1 45.45 38.851 Q 53.1 62.401 57.6 72.601 Q 62.465 58.133 66.707 31.425 A 658.145 658.145 0 0 0 68.4 20.101 Q 70.35 6.151 70.95 3.076 A 6.675 6.675 0 0 1 71.291 1.878 Q 71.541 1.255 71.901 0.839 A 2.391 2.391 0 0 1 73.8 0.001 A 10.221 10.221 0 0 1 77.421 0.716 Z M 276.08 53.378 A 292.517 292.517 0 0 0 276.75 51.151 A 332.785 332.785 0 0 0 281.1 50.252 Q 287.883 48.801 292.553 47.464 A 70.651 70.651 0 0 0 296.775 46.126 Q 303.3 43.801 303.3 40.501 A 3.844 3.844 0 0 0 301.232 37.066 Q 299.343 35.925 295.73 35.566 A 37.469 37.469 0 0 0 292.05 35.401 A 127.171 127.171 0 0 0 290.103 35.418 Q 287.752 35.454 284.484 35.57 A 552.001 552.001 0 0 0 281.1 35.701 A 121.142 121.142 0 0 0 281.69 33.082 Q 282.566 28.967 282.878 25.917 A 30.172 30.172 0 0 0 283.05 22.876 A 6.985 6.985 0 0 0 282.983 21.917 Q 282.573 18.954 279.633 15.929 A 25.739 25.739 0 0 0 276.975 13.576 A 42.95 42.95 0 0 0 275.155 12.232 Q 270.299 8.851 267 8.851 A 6.63 6.63 0 0 0 265.334 9.043 Q 262.5 9.781 262.5 13.351 A 82.964 82.964 0 0 1 262.343 18.339 Q 262.083 22.666 261.387 27.566 A 167.21 167.21 0 0 1 259.65 37.501 Q 236.4 40.801 236.4 45.601 Q 236.4 49.351 239.7 53.476 Q 243 57.601 246 57.601 Q 249 57.601 254.85 55.951 A 666.456 666.456 0 0 1 254.164 58.182 Q 252.379 63.949 248.625 75.826 A 279.368 279.368 0 0 0 247.16 80.599 Q 244.875 88.307 244.269 92.355 A 17.031 17.031 0 0 0 244.05 94.801 Q 244.05 100.201 250.65 105.451 Q 257.25 110.701 262.05 110.701 A 33.201 33.201 0 0 0 273.103 108.807 A 40.194 40.194 0 0 0 283.05 103.576 Q 293.1 96.451 293.1 91.351 A 11.223 11.223 0 0 0 293.028 90.033 Q 292.72 87.444 291.11 86.627 A 3.849 3.849 0 0 0 289.35 86.251 Q 288.009 86.251 281.619 88.479 A 271.173 271.173 0 0 0 278.4 89.626 A 183.679 183.679 0 0 1 275.046 90.81 Q 270.302 92.428 267.973 92.851 A 7.859 7.859 0 0 1 266.625 93.001 A 13.936 13.936 0 0 1 265.863 92.982 Q 264.15 92.888 264.15 92.326 A 1.108 1.108 0 0 1 264.172 92.153 Q 264.42 90.776 267.525 80.701 Q 270.9 69.751 273.225 62.476 A 1103.986 1103.986 0 0 0 274.253 59.243 Q 275.316 55.882 276.08 53.378 Z M 209.4 76.201 L 213.75 83.851 A 325.344 325.344 0 0 1 217.114 89.902 Q 223.65 101.983 223.65 105.151 A 9.062 9.062 0 0 1 223.43 107.246 Q 222.755 110.074 220.016 110.588 A 7.152 7.152 0 0 1 218.7 110.701 A 9.819 9.819 0 0 1 213.898 109.226 Q 208.065 105.905 200.307 95.108 A 146.054 146.054 0 0 1 197.4 90.901 A 240.398 240.398 0 0 1 191.383 97.63 Q 179.203 110.701 174.45 110.701 A 8.712 8.712 0 0 1 170.012 109.444 Q 168.753 108.71 167.533 107.548 A 18.188 18.188 0 0 1 166.725 106.726 A 22.913 22.913 0 0 1 165.117 104.8 Q 163.477 102.579 163.138 100.703 A 5.354 5.354 0 0 1 163.05 99.751 Q 163.05 99.046 165.835 96.351 A 64.324 64.324 0 0 1 166.2 96.001 Q 177.337 85.401 185.233 75.881 A 162.608 162.608 0 0 0 187.05 73.651 A 262.16 262.16 0 0 1 180.078 60.128 A 210.897 210.897 0 0 1 176.1 51.301 Q 171.703 40.895 171.602 38.437 A 2.71 2.71 0 0 1 171.6 38.326 Q 171.6 36.001 171.75 35.251 Q 172.2 33.301 174.45 33.301 A 36.124 36.124 0 0 1 182.379 34.22 A 46.462 46.462 0 0 1 187.725 35.776 Q 194.7 38.251 194.7 41.551 Q 194.7 46.801 199.2 56.851 Q 208.35 43.951 214.125 38.551 A 39.164 39.164 0 0 1 216.717 36.317 Q 219.371 34.239 221.495 33.525 A 6.549 6.549 0 0 1 223.575 33.151 A 7.648 7.648 0 0 1 226.458 33.763 Q 228.716 34.681 231.259 36.977 A 29.814 29.814 0 0 1 231.825 37.501 Q 235.627 41.117 236.269 44.11 A 5.67 5.67 0 0 1 236.4 45.301 A 4.184 4.184 0 0 1 235.819 47.402 A 6.088 6.088 0 0 1 235.05 48.451 Q 233.762 49.883 231.244 51.793 A 56.775 56.775 0 0 1 231 51.976 Q 228.3 54.001 225.825 56.551 A 42.561 42.561 0 0 0 224.493 58.019 Q 221.409 61.538 213.224 71.524 A 2632.036 2632.036 0 0 0 209.4 76.201 Z M 158.384 68.223 Q 157.02 70.059 154.887 71.78 A 33.281 33.281 0 0 1 150.825 74.551 Q 140.85 80.401 130.35 80.401 A 121.579 121.579 0 0 1 123.574 80.224 Q 120.363 80.044 117.608 79.682 A 52.169 52.169 0 0 1 113.1 78.901 A 25.508 25.508 0 0 0 111.75 86.875 A 24.3 24.3 0 0 0 111.75 87.001 A 19.203 19.203 0 0 0 111.845 88.989 Q 112.109 91.51 113.1 92.776 Q 114.409 94.45 119.53 94.5 A 32.684 32.684 0 0 0 119.85 94.501 A 100.882 100.882 0 0 0 128.458 94.155 Q 132.516 93.807 136.036 93.108 A 52.717 52.717 0 0 0 139.125 92.401 A 1502.148 1502.148 0 0 1 141.011 91.909 Q 146.512 90.477 147.322 90.321 A 0.909 0.909 0 0 1 147.45 90.301 A 13.984 13.984 0 0 1 149.54 90.444 Q 152.254 90.856 153.153 92.463 A 3.804 3.804 0 0 1 153.6 94.351 A 7.982 7.982 0 0 1 152.064 98.918 Q 149.745 102.293 143.925 105.451 A 43.093 43.093 0 0 1 129.204 110.189 A 55.081 55.081 0 0 1 121.575 110.701 A 32.723 32.723 0 0 1 112.46 109.494 A 24.867 24.867 0 0 1 101.25 102.751 Q 93.6 94.801 93.6 83.926 A 41.76 41.76 0 0 1 95.617 71.383 Q 97.186 66.386 99.975 61.201 A 68.656 68.656 0 0 1 111.352 45.578 A 62.82 62.82 0 0 1 115.95 41.326 A 41.582 41.582 0 0 1 122.541 36.757 Q 126.812 34.408 131.067 33.656 A 22.977 22.977 0 0 1 135.075 33.301 Q 144.019 33.301 151.706 41.567 A 40.706 40.706 0 0 1 152.7 42.676 A 40.702 40.702 0 0 1 157.27 49.04 Q 159.573 53.066 160.373 57.079 A 21.788 21.788 0 0 1 160.8 61.351 A 11.343 11.343 0 0 1 158.384 68.223 Z M 143.4 58.951 Q 143.4 57.451 140.25 54.601 A 15.402 15.402 0 0 0 138.425 53.168 Q 137.42 52.504 136.457 52.151 A 6.178 6.178 0 0 0 134.325 51.751 Q 132.078 51.751 128.797 54.359 A 30.64 30.64 0 0 0 127.2 55.726 A 40.507 40.507 0 0 0 122.962 60.283 Q 121.158 62.53 119.439 65.223 A 66.861 66.861 0 0 0 118.95 66.001 Q 120.3 66.151 122.85 66.151 A 89.57 89.57 0 0 0 129.307 65.939 Q 143.4 64.914 143.4 58.951 Z" vector-effect="non-scaling-stroke"/></g></svg>
